<svg id="bg-10" xmlns="http://www.w3.org/2000/svg" viewBox="0 0 394.85 201.94"><defs><style>.cls-1{fill:#232949;}.cls-2{fill:#fff;}.cls-3{fill:#1a2040;}.cls-4{fill:#04d976;}.cls-5{fill:#bac6f2;}.cls-6{fill:#e9edfa;}</style></defs><title>bg-10</title><path class="cls-1" d="M130.08,70.37a6.53,6.53,0,0,1-.3-1.07c-1-6.31-5.84-41.78,20.95-53.69C163.92,9.75,178.88.07,227.25,18,284.35,39.07,321.66,3.3,330.46,3.3s28.73-12.9,52.19,12.31,5.86,55.71,5.86,55.71-11.14,28.73-7.62,43.39,7.62,26.39,6.45,31.08-1.76,36.36-21.11,43.4-12.9,5.86-58.05,3.52-68.61,4.1-78,7.62-23.46,2.34-48.68-14.66-31.07-11.73-44-19.35S91.86,116.53,119.36,86C130,74.17,130.34,71.11,130.08,70.37Z"/><circle class="cls-2" cx="166.02" cy="47.65" r="8.82"/><circle class="cls-2" cx="175.6" cy="47.61" r="6"/><circle class="cls-2" cx="155.97" cy="47.49" r="4.83"/><circle class="cls-2" cx="339.01" cy="33.67" r="8.82"/><circle class="cls-2" cx="348.59" cy="33.63" r="6"/><circle class="cls-2" cx="328.96" cy="33.5" r="4.83"/><circle class="cls-2" cx="243.3" cy="64.41" r="8.82"/><circle class="cls-2" cx="252.88" cy="64.37" r="6"/><circle class="cls-2" cx="233.25" cy="64.25" r="4.83"/><path class="cls-3" d="M115.54,142.27s5.58-8.2,6.16-9.38.3-5.86.3-5.86h-2.06s1.76-5,6.75-5,6.45,2.35,7,3.52.3,1.76.3,1.76h-1.76V132l8.5,14.08h3.52V169S123.46,158.11,115.54,142.27Z"/><path class="cls-2" d="M135.19,163.09h4.1v-5.86s-2-3.23-4.1,0Z"/><circle class="cls-4" cx="136.46" cy="148.58" r="2.59"/><path class="cls-4" d="M117.24,145.45a2.59,2.59,0,0,1,3,4.19"/><circle class="cls-4" cx="127.21" cy="136.84" r="2.59"/><path class="cls-2" d="M122.9,146.5a3,3,0,0,1,.69-1.83A4.65,4.65,0,0,1,127,143a4.09,4.09,0,0,1,4.09,3.16c.25,1.42.2,8.55.2,8.55l-6.39,0-2-2.09Z"/><path class="cls-4" d="M143.61,137l.67,31.93s12.08,4.51,17.18,5.58,16.95,7.84,16.95,7.84l-.2-45.2L143.62,137"/><path class="cls-3" d="M143.36,137l34.85.15-.16-8.33H167.73s-1.28-5-6.08-5a6.73,6.73,0,0,0-6.88,5.25L143.33,129Z"/><rect class="cls-3" x="147.05" y="141.77" width="6.16" height="6.68"/><rect class="cls-3" x="158.18" y="141.67" width="6.16" height="6.68"/><rect class="cls-2" x="169.18" y="141.77" width="6.16" height="6.68"/><rect class="cls-3" x="169.27" y="154.35" width="6.16" height="6.68"/><rect class="cls-3" x="169.36" y="168.98" width="6.16" height="6.68"/><rect class="cls-5" x="157.94" y="154.16" width="6.16" height="6.68"/><rect class="cls-2" x="157.94" y="154.16" width="6.16" height="6.68"/><rect class="cls-3" x="147.1" y="154.44" width="6.16" height="6.68"/><path class="cls-3" d="M147.23,170l0-1.95,6,.12,0,3.93S148.76,170.6,147.23,170Z"/><polygon class="cls-3" points="158.28 173.65 158.19 168.67 164.25 168.8 164.12 175.31 158.28 173.65"/><circle class="cls-2" cx="161.32" cy="130.29" r="3.39"/><path class="cls-3" d="M178.11,159.44l.29,22.94s18.26,12.15,19.42,13,10.7,5.5,15.05,5.79l.78-46.31-2.57-.1L198.54,139.2l-4.65-.22-15.78,20.44"/><polygon class="cls-4" points="178.11 159.44 193.91 139.59 195.65 139.66 197.64 139.78 198.74 139.89 211.08 154.8 213.65 154.89 213.65 154.01 211.18 153.91 199.36 139.46 199.44 133.87 193.71 133.57 193.49 139.29 178.31 146.6 178.11 159.44"/><rect class="cls-2" x="188.13" y="155.13" width="2.87" height="3.36"/><rect class="cls-2" x="200.8" y="155.16" width="2.87" height="3.36"/><rect class="cls-2" x="196.14" y="155.15" width="2.87" height="3.36"/><rect class="cls-2" x="192.33" y="155.12" width="2.87" height="3.36"/><rect class="cls-2" x="188.14" y="160.27" width="2.87" height="3.36"/><rect class="cls-2" x="200.81" y="160.29" width="2.87" height="3.36"/><rect class="cls-2" x="196.15" y="160.29" width="2.87" height="3.36"/><rect class="cls-2" x="192.33" y="160.26" width="2.87" height="3.36"/><rect class="cls-2" x="181.32" y="175.45" width="2.87" height="3.36"/><rect class="cls-2" x="185.05" y="171.58" width="2.87" height="3.36"/><rect class="cls-2" x="181.24" y="171.56" width="2.87" height="3.36"/><rect class="cls-2" x="185.09" y="175.48" width="2.87" height="3.36"/><rect class="cls-2" x="192.58" y="175.53" width="2.87" height="3.36"/><rect class="cls-2" x="196.31" y="171.66" width="2.87" height="3.36"/><rect class="cls-2" x="192.49" y="171.64" width="2.87" height="3.36"/><rect class="cls-2" x="196.34" y="175.56" width="2.87" height="3.36"/><rect class="cls-2" x="203.47" y="175.64" width="2.87" height="3.36"/><rect class="cls-2" x="207.2" y="171.77" width="2.87" height="3.36"/><rect class="cls-2" x="203.39" y="171.74" width="2.87" height="3.36"/><rect class="cls-2" x="207.24" y="175.67" width="2.87" height="3.36"/><rect class="cls-2" x="203.32" y="192.04" width="2.87" height="4.79"/><rect class="cls-2" x="207.05" y="188.18" width="2.87" height="3.36"/><rect class="cls-2" x="203.24" y="188.15" width="2.87" height="3.36"/><rect class="cls-2" x="195.74" y="188.08" width="2.87" height="3.36"/><polygon class="cls-2" points="198.64 195.9 195.77 194.03 195.76 192.19 198.63 192.19 198.64 195.9"/><rect class="cls-2" x="191.93" y="188.06" width="2.87" height="3.36"/><polygon class="cls-2" points="194.79 193.33 194.06 192.82 192.86 192.04 194.78 192.04 194.79 193.33"/><rect class="cls-2" x="207.09" y="192.07" width="2.87" height="4.77"/><polygon class="cls-3" points="228.52 124.31 233.94 124.31 233.85 121.66 228.43 121.61 228.52 124.31"/><path class="cls-4" d="M213.41,149.09l-.52,52.1s9.3,1.43,17.67-.68,18.07-4.4,18.07-4.4l.32-46.53-5.63-2.76-9.15-16.19L234,124.3h-5.43l-.17,6.33-9.63,15.9Z"/><rect class="cls-3" x="227.32" y="153.56" width="3.55" height="4.42"/><rect class="cls-3" x="232.14" y="153.64" width="3.79" height="4.34"/><rect class="cls-3" x="227.24" y="158.81" width="3.55" height="4.42"/><rect class="cls-3" x="232.06" y="158.88" width="3.79" height="4.34"/><rect class="cls-3" x="227.4" y="169.34" width="3.55" height="4.42"/><rect class="cls-3" x="219.02" y="169.31" width="3.55" height="4.42"/><rect class="cls-3" x="240.04" y="169.51" width="3.55" height="4.42"/><rect class="cls-3" x="240.14" y="188.99" width="3.55" height="4.42"/><rect class="cls-3" x="219.06" y="189.11" width="3.55" height="4.42"/><rect class="cls-3" x="232.21" y="169.42" width="3.79" height="4.34"/><rect class="cls-3" x="227.32" y="174.59" width="3.55" height="4.42"/><rect class="cls-3" x="232.14" y="174.67" width="3.79" height="4.34"/><rect class="cls-3" x="227.33" y="188.5" width="3.55" height="4.42"/><rect class="cls-3" x="232.15" y="188.58" width="3.79" height="4.34"/><rect class="cls-3" x="227.25" y="193.75" width="3.55" height="4.42"/><rect class="cls-3" x="232.07" y="193.83" width="3.79" height="4.34"/><circle class="cls-3" cx="221" cy="158.47" r="2.48"/><circle class="cls-3" cx="241.14" cy="159.02" r="2.48"/><polygon class="cls-3" points="213.41 149.09 218.82 149.09 218.74 146.45 213.31 146.39 213.41 149.09"/><polygon class="cls-3" points="243.53 149.58 248.94 149.58 248.86 146.94 243.44 146.89 243.53 149.58"/><circle class="cls-3" cx="231.43" cy="143.54" r="4.27"/><path class="cls-3" d="M246.7,149.81l.32,22.48s.82,24.09.9,24c1.92-2,31.69-4,35.13-4.11l-.8-46.91-2.57-.1-12.55-15.59-4.65-.22L246.7,149.81"/><polygon class="cls-4" points="246.7 149.81 262.5 129.97 264.24 130.03 266.24 130.15 267.34 130.26 279.68 145.17 282.24 145.27 282.24 144.38 279.77 144.28 267.95 129.83 268.03 124.24 262.3 123.94 262.08 129.67 246.72 146.93 246.7 149.81"/><rect class="cls-2" x="256.73" y="145.5" width="2.87" height="3.36"/><rect class="cls-2" x="269.4" y="145.53" width="2.87" height="3.36"/><rect class="cls-2" x="264.74" y="145.52" width="2.87" height="3.36"/><rect class="cls-2" x="260.92" y="145.5" width="2.87" height="3.36"/><rect class="cls-2" x="256.73" y="150.64" width="2.87" height="3.36"/><rect class="cls-2" x="269.4" y="150.67" width="2.87" height="3.36"/><rect class="cls-2" x="264.74" y="150.66" width="2.87" height="3.36"/><rect class="cls-2" x="260.93" y="150.63" width="2.87" height="3.36"/><rect class="cls-2" x="249.98" y="168.23" width="2.87" height="3.36"/><rect class="cls-2" x="253.71" y="164.37" width="2.87" height="3.36"/><rect class="cls-2" x="249.9" y="164.34" width="2.87" height="3.36"/><rect class="cls-2" x="253.75" y="168.26" width="2.87" height="3.36"/><rect class="cls-2" x="261.24" y="168.31" width="2.87" height="3.36"/><rect class="cls-2" x="264.97" y="164.45" width="2.87" height="3.36"/><rect class="cls-2" x="261.15" y="164.42" width="2.87" height="3.36"/><rect class="cls-2" x="265.01" y="168.34" width="2.87" height="3.36"/><rect class="cls-2" x="272.13" y="168.42" width="2.87" height="3.36"/><rect class="cls-2" x="275.86" y="164.56" width="2.87" height="3.36"/><rect class="cls-2" x="272.05" y="164.53" width="2.87" height="3.36"/><rect class="cls-2" x="275.9" y="168.45" width="2.87" height="3.36"/><rect class="cls-2" x="250.06" y="182.97" width="2.87" height="3.36"/><rect class="cls-2" x="253.79" y="179.1" width="2.87" height="3.36"/><rect class="cls-2" x="249.98" y="179.07" width="2.87" height="3.36"/><rect class="cls-2" x="253.83" y="183" width="2.87" height="3.36"/><rect class="cls-2" x="261.31" y="183.05" width="2.87" height="3.36"/><rect class="cls-2" x="265.05" y="179.18" width="2.87" height="3.36"/><rect class="cls-2" x="261.23" y="179.15" width="2.87" height="3.36"/><rect class="cls-2" x="265.09" y="183.08" width="2.87" height="3.36"/><rect class="cls-2" x="272.21" y="183.16" width="2.87" height="3.36"/><rect class="cls-2" x="275.94" y="179.29" width="2.87" height="3.36"/><rect class="cls-2" x="272.13" y="179.26" width="2.87" height="3.36"/><rect class="cls-2" x="275.98" y="183.19" width="2.87" height="3.36"/><path class="cls-4" d="M285.6,139.1s7.58-12.07,8.17-13.24.29-5.87.29-5.87H292s1.76-5,6.74-5,6.45,2.34,7,3.52.29,1.75.29,1.75h-1.76V125l8.51,14.07h3.52l1.15,54.22s-33.44-1.57-34.15-1.1c-.22.15-.2-1.39-.24-1.66-.15-1.14-1.4-42.61-.77-51.36Z"/><path class="cls-2" d="M307.12,156.2h4.1v-5.87s-2.05-3.22-4.1,0Z"/><path class="cls-2" d="M287.4,156.67h4.11V150.8s-2.05-3.22-4.11,0Z"/><path class="cls-2" d="M287.4,171.81h4.11v-5.87s-2.05-3.22-4.11,0Z"/><path class="cls-2" d="M297.21,172h4.1v-5.86s-2.05-3.23-4.1,0Z"/><path class="cls-2" d="M307,172.16h4.11v-5.87s-2.05-3.22-4.11,0Z"/><path class="cls-2" d="M287.65,186.29h4.11v-5.86s-2.05-3.23-4.11,0Z"/><path class="cls-2" d="M297.46,186.47h4.1V180.6s-2.05-3.22-4.1,0Z"/><path class="cls-2" d="M307.26,186.64h4.11v-5.86s-2.06-3.22-4.11,0Z"/><circle class="cls-6" cx="308.39" cy="141.68" r="2.59"/><circle class="cls-6" cx="289.88" cy="141.29" r="2.59"/><circle class="cls-6" cx="299.33" cy="154.06" r="2.59"/><circle class="cls-6" cx="299.14" cy="129.94" r="2.59"/><path class="cls-2" d="M294.83,139.6a3,3,0,0,1,.69-1.82,4.58,4.58,0,0,1,3.36-1.71,4.08,4.08,0,0,1,4.09,3.16c.25,1.41.2,8.54.2,8.54h-8.43l0-2.12Z"/><path class="cls-3" d="M316.49,149.29l.88,44s9.65.1,15.56.84c5.17.64,17.59.05,17.59.05l.59-44.78-34.6-.23"/><path class="cls-4" d="M316.25,149.29l34.85.14-.16-8.33H340.61s-1.28-5-6.08-5a6.73,6.73,0,0,0-6.88,5.25l-11.44-.12Z"/><rect class="cls-2" x="319.93" y="154.02" width="6.16" height="6.68"/><rect class="cls-2" x="331.07" y="153.92" width="6.16" height="6.68"/><rect class="cls-2" x="342.06" y="154.02" width="6.16" height="6.68"/><rect class="cls-2" x="342.15" y="166.6" width="6.16" height="6.68"/><rect class="cls-2" x="342.24" y="181.23" width="6.16" height="6.68"/><rect class="cls-2" x="331.08" y="180.96" width="6.16" height="6.68"/><rect class="cls-2" x="319.93" y="180.82" width="6.16" height="6.68"/><rect class="cls-2" x="330.83" y="166.41" width="6.16" height="6.68"/><rect class="cls-2" x="330.83" y="166.41" width="6.16" height="6.68"/><rect class="cls-2" x="319.98" y="166.69" width="6.16" height="6.68"/><circle class="cls-2" cx="334.2" cy="142.54" r="3.39"/><polygon class="cls-2" points="366.07 111.55 371.48 111.55 371.4 108.91 365.98 108.85 366.07 111.55"/><path class="cls-4" d="M351,136.33l-.64,57.94s11.59-2.93,18.93-6.58c7-3.45,10.26-11,11.05-12.53a3.06,3.06,0,0,0,.22-.49l4-12a6.78,6.78,0,0,0,.25-1l1.83-11.8.88-5.4a2.86,2.86,0,0,0,0-1l-1-6.42a.44.44,0,0,0-.25-.34l-5.43-2.66-9.14-16.19-.23-6.33h-5.42l-.17,6.33-9.62,15.89Z"/><rect class="cls-2" x="364.87" y="140.8" width="3.55" height="4.42"/><rect class="cls-2" x="369.68" y="140.88" width="3.79" height="4.34"/><rect class="cls-2" x="364.79" y="146.05" width="3.55" height="4.42"/><rect class="cls-2" x="369.6" y="146.13" width="3.79" height="4.34"/><rect class="cls-2" x="364.95" y="156.58" width="3.55" height="4.42"/><rect class="cls-2" x="356.57" y="156.56" width="3.55" height="4.42"/><rect class="cls-2" x="377.59" y="156.76" width="3.55" height="4.42"/><polygon class="cls-2" points="378.73 178.24 377.67 179.78 377.8 175.9 379.96 175.81 378.73 178.24"/><rect class="cls-2" x="356.61" y="176.36" width="3.55" height="4.42"/><rect class="cls-2" x="369.76" y="156.66" width="3.79" height="4.34"/><rect class="cls-2" x="364.87" y="161.83" width="3.55" height="4.42"/><rect class="cls-2" x="369.68" y="161.91" width="3.79" height="4.34"/><rect class="cls-2" x="364.88" y="175.75" width="3.55" height="4.42"/><rect class="cls-2" x="369.7" y="175.83" width="3.79" height="4.34"/><rect class="cls-2" x="364.8" y="181" width="3.55" height="4.42"/><polygon class="cls-2" points="373.11 185.11 372.71 185.42 369.62 185.42 369.62 181.08 373.41 181.08 373.41 184.82 373.11 185.11"/><circle class="cls-2" cx="358.55" cy="145.71" r="2.48"/><circle class="cls-2" cx="378.69" cy="146.27" r="2.48"/><polygon class="cls-2" points="350.95 136.34 356.37 136.34 356.29 133.69 350.86 133.64 350.95 136.34"/><polygon class="cls-2" points="381.07 136.83 386.49 136.83 386.14 135.17 385.91 134.18 380.98 134.13 381.07 136.83"/><circle class="cls-2" cx="368.97" cy="130.79" r="4.27"/></svg>